<?xml version="1.0" encoding="UTF-8" standalone="no"?>
<svg
   version="1.1"
   width="459.12073"
   height="241.31818"
   id="svg35"
   viewBox="0 0 459.12073 241.31817"
   sodipodi:docname="6cf59ad9fc88d01dec6c6aeab9cfb9da.cdr"
   xmlns:inkscape="http://www.inkscape.org/namespaces/inkscape"
   xmlns:sodipodi="http://sodipodi.sourceforge.net/DTD/sodipodi-0.dtd"
   xmlns="http://www.w3.org/2000/svg"
   xmlns:svg="http://www.w3.org/2000/svg">
  <defs
     id="defs39" />
  <sodipodi:namedview
     id="namedview37"
     pagecolor="#ffffff"
     bordercolor="#666666"
     borderopacity="1.0"
     inkscape:pageshadow="2"
     inkscape:pageopacity="0.0"
     inkscape:pagecheckerboard="0" />
  <g
     id="Layer1000"
     transform="translate(-11.384572,-16.8214)">
    <path
       d="m 168.5157,164.5466 c 0.7889,-0.3906 0.1494,-0.2715 0.7033,-0.4767 0.756,-0.2804 0.7889,0.3515 2.9506,-0.9117 2.6234,-1.5327 3.3783,-2.7547 4.9861,-5.2877 4.0034,-6.3074 4.0822,-19.7056 -2.1294,-17.6448 -1.0051,0.3336 -2.2096,1.5389 -2.8071,2.2354 -4.7696,5.5567 -4.5391,7.6135 -6.2547,14.2812 -0.6644,2.5824 -1.7107,5.7237 -2.1115,8.1998"
       style="fill:#1b1918;fill-rule:evenodd"
       id="path2" />
    <path
       d="m 66.4268,114.9245 c 0.398,2.3113 1.8575,3.6978 3.1842,4.7214 3.5013,2.7019 9.1434,8.094 12.0438,11.7975 2.3224,2.9653 4.625,5.6849 6.8981,9.0025 7.0776,10.3298 11.554,18.4006 17.9215,29.3803 3.9274,6.7719 7.9421,13.0657 11.9072,19.6889 4.0595,6.781 7.835,13.0835 11.9293,19.8629 3.9861,6.5993 7.8659,13.0975 12.0402,19.5613 1.1092,1.7175 6.6722,11.3091 8.5079,11.3678 4.2446,0.1358 9.6454,-4.4439 12.4214,-7.1323 5.4601,-5.2877 7.0668,-4.5808 3.5053,-16.662 -2.353,-7.9815 -5.4107,-15.8678 -8.3738,-23.425 -8.6933,-22.172 -18.667,-44.9645 -28.5452,-66.2459 -3.8676,-8.3319 -3.9906,-8.369 -8.3497,-15.4936 -3.8228,-6.2484 -10.2985,-14.7799 -15.0797,-20.5903 -0.5508,-0.6693 -1.0327,-1.6552 -2.3775,-1.3737 -1.6551,0.3461 -8.3916,4.6769 -10.2123,5.7067 -7.2485,4.1003 -17.8688,10.2192 -24.4112,15.1297 -1.5273,1.1463 -3.4959,1.8796 -3.0095,4.7038 z"
       style="fill:#1b1918;fill-rule:evenodd"
       id="path4" />
    <path
       d="m 318.2108,104.7359 h 22.5541 l 14.2501,-67.6783 24.4168,-0.0238 c 8e-4,1.3042 -0.8399,4.4025 -1.1288,5.8093 l -3.7851,17.7645 c -0.407,1.9332 -4.5759,22.0657 -5.0768,23.4167 l -17.6528,0.0062 -4.3753,20.6915 c 8.8991,0.0139 17.7339,0.0139 26.5683,0.0139 4.0847,0 6.7374,0.4456 10.7158,-2.5534 2.4449,-1.8431 4.252,-4.0139 4.9726,-8.2199 0.9779,-5.707 3.2899,-15.7244 4.6057,-21.7752 l 9.193,-43.5144 c 0.4482,-2.1719 1.0625,-3.4237 0.2206,-5.7226 -2.3202,-6.336 -8.0558,-5.3864 -14.3955,-5.4312 L 350.1411,17.106 c -4.144,-0.0377 -9.1287,-0.3714 -13.18,-0.1126 -0.6945,1.1903 -4.121,18.834 -4.769,21.8336 -1.1613,5.3762 -13.7052,63.1746 -13.9813,65.9089 z"
       style="fill:#1b1918;fill-rule:evenodd"
       id="path6" />
    <path
       d="m 127.8159,62.9229 c -0.027,-1.2912 0.9329,-4.9844 1.2523,-6.4998 1.0897,-5.1704 3.3976,-14.7771 3.9957,-19.126 l 22.904,0.0528 -9.5514,45.1658 -33.8984,-0.0153 5.6977,-4.9147 c 1.0012,-0.8904 1.8845,-1.6121 2.9338,-2.4891 1.433,-1.1977 13.8246,-11.4928 14.2586,-12.1683 z m 54.8472,-38.5413 1.5359,-7.5602 h -61.8829 c -4.6604,0 -9.1137,2.9916 -11.0571,7.2663 -1.7824,3.9209 -6.6575,34.0098 -8.5873,38.6909 l -0.6171,0.15 c -0.29,0.0269 -0.8512,-9e-4 -1.1676,-0.0037 l -6.8247,0.0167 c 0.5661,1.1208 1.8763,2.6578 2.7029,3.7534 0.9731,1.29 1.8524,2.4366 2.8496,3.7476 2.3953,3.1488 24.9358,33.2731 25.4305,33.4656 0.525,0.2041 18.023,0.0779 19.4496,0.0779 3.4968,0 9.7963,0.3615 12.9493,-0.1323 3.8281,-0.5993 6.1718,-2.9741 7.783,-5.2229 2.3083,-3.2213 2.7114,-5.0374 3.6482,-9.5434 L 181.5109,29.592 c 0.231,-1.1064 0.7922,-4.3948 1.1522,-5.2104 z"
       style="fill:#1b1918;fill-rule:evenodd"
       id="path8" />
    <path
       d="m 209.3669,36.1488 c 1.6064,-0.3073 6.0948,-0.0788 8.0054,-0.0788 13.0852,0 16.5495,-1.2988 13.9172,8.8268 -1.3578,5.2234 -3.1408,6.8891 -9.138,7.0997 -4.8215,0.1695 -11.3525,0.2766 -16.1907,-0.017 z M 190.9106,25.4407 c 0.0734,1.4397 -1.5897,7.99 -1.9761,9.8098 l -12.7718,59.4281 c -0.6616,3.0776 -1.6939,6.8964 -2.1211,10.0565 l 20.266,-0.002 c 0.5527,-1.279 5.3909,-23.7217 6.1378,-27.112 0.5641,-2.5611 1.1917,-6.8941 2.0027,-9.2078 1.2419,-0.2761 13.2083,-0.1165 15.5058,-0.1139 5.8915,0.0071 9.171,0.2687 8.0303,6.995 -0.7736,4.5601 -2.1765,8.1652 -5.9927,9.4853 -3.3965,1.1747 -13.8776,0.4145 -14.7836,0.8963 -0.5128,0.7002 -3.8301,16.9348 -4.1453,19.0477 7.2541,0.1562 17.5475,0.4536 24.4156,-0.6806 7.577,-1.2512 12.181,-4.8101 15.1121,-9.9065 3.3919,-5.8972 8.9586,-23.1381 4.4886,-29.6067 -2.6336,-3.8112 -6.9619,-3.3285 -8.5821,-4.0853 0.1349,-1.8105 1.9173,-0.3331 6.6429,-3.1133 2.1694,-1.2764 3.7112,-2.8134 5.0931,-4.7894 2.6467,-3.7851 4.1706,-9.2849 5.1808,-14.6126 1.1364,-5.9947 1.4369,-12.0212 -1.9939,-16.1932 -4.2434,-5.1594 -13.2556,-4.3447 -14.8498,-4.9144 H 192.928 c -0.4289,1.4689 -1.431,7.9798 -2.0174,8.6193 z"
       style="fill:#1b1918;fill-rule:evenodd"
       id="path10" />
    <path
       d="m 143.0243,245.5123 c 2.1385,-0.1423 4.2358,-0.3495 6.2745,-0.6976 2.2309,-0.3807 3.4705,-1.1761 5.2974,-1.7121 0.6503,1.1971 3.2924,4.6239 3.5107,5.7929 -2.1081,1.457 -6.2787,2.7244 -9.1304,1.9029 -2.429,-0.6993 -5.5485,-3.2255 -5.9522,-5.2861 z m 21.2857,-8.89 c 0.1632,1.5299 0.0989,2.1898 -0.188,3.6111 -0.3308,-0.2251 -0.1188,-0.0255 -0.3812,-0.3053 -0.0403,-0.0428 -0.1429,-0.1823 -0.1772,-0.2302 -0.0995,-0.1392 -0.2112,-0.3767 -0.3492,-0.6077 -0.2492,-0.4176 -0.4627,-0.7257 -0.5585,-1.2725 z m -41.3938,-0.9408 c 0.6443,0.4105 0.2772,0.0936 0.6236,0.6611 l 2.6909,4.7412 c -0.4436,-0.4402 -1.4065,-1.8343 -1.8521,-2.5257 -0.4604,-0.714 -1.3893,-1.9009 -1.5817,-2.7879 L 109.044,214.3647 c -3.4265,-5.1324 -7.077,-11.1569 -10.6038,-15.9525 -0.7458,-1.0143 -1.0052,-1.6977 -2.3553,-2.107 -7.0033,-2.1235 -6.0889,-0.6682 -8.1876,-5.0015 -0.9375,-1.9349 -1.8114,-3.9903 -2.7006,-6.0253 -3.4118,-7.8095 -6.8261,-17.0884 -10.0542,-25.2272 -0.9122,-2.2998 -4.263,-11.1371 -5.2773,-12.4036 0.2605,2.8403 1.6141,7.5881 2.2907,10.5472 0.7977,3.4894 1.533,6.9434 2.3474,10.4425 l 3.5115,15.7323 c 0.3671,1.734 1.2501,3.8673 -0.0011,5.2038 -0.9969,-0.898 -3.0866,-11.3428 -3.6003,-13.4569 -1.4343,-5.9042 -9.589,-40.5561 -8.8044,-41.9947 1.5129,0.7872 10.8431,25.181 12.1822,28.5137 1.2679,3.1553 10.8734,27.9185 12.2394,28.4548 3.2324,0.1868 1.5282,-1.9415 5.756,0.2979 1.135,0.6012 4.1497,1.8332 4.6849,2.8332 -0.4989,0.8552 -1.5965,0.7115 -2.4628,1.355 0.1035,0.9003 0.3436,0.6245 0.8912,1.2092 0.9695,1.0344 23.5352,37.6234 24.0163,38.8959 z M 53.3999,117.8427 c 0.718,1.8913 6.7192,16.742 6.4511,17.4898 -1.2858,0.4748 -1.9415,-2.4976 -2.3559,-3.5753 l -5.1015,-13.3155 c -2.1271,-5.6775 -3.7454,-10.3949 -5.3816,-16.1362 -0.1071,-0.3753 -0.2849,-0.8782 -0.3529,-1.2385 -0.1553,-0.8215 -0.0193,-0.8696 0.1491,-1.0712 0.4972,0.6134 5.7838,15.7193 6.5917,17.8469 z m 1.9364,-11.0281 c 0.6919,-0.8161 0.4739,-2.1646 1.0802,-2.833 0.2656,-0.2931 1.8958,-1.1905 2.3942,-1.4783 L 88.06,85.4198 c 3.0271,-1.7272 3.7547,-2.7471 4.862,-1.516 -0.4017,0.7693 -6.4285,3.9025 -7.1198,4.2973 l -21.5368,12.5816 c -1.5375,0.887 -6.2411,3.1371 -6.7513,4.6604 -0.8399,2.5076 0.3736,2.5983 1.2373,4.1267 0.8073,1.4287 5.3241,22.5261 4.8997,23.3856 -0.5128,0.5309 -1.3056,0.8266 -2.1124,0.9473 -0.5136,-0.9422 -3.8446,-17.1487 -4.4039,-19.6041 -0.9079,-3.9889 -2.2444,-5.1611 -4.1402,-7.89 -0.8071,-1.1613 -1.6376,-2.334 -2.4463,-3.5609 -0.4284,-0.6502 -0.8161,-1.1914 -1.2609,-1.8405 -1.6447,-2.4018 -0.4303,-2.4684 0.2642,-1.6441 l 4.0555,5.4649 c 1.0542,1.4327 0.8873,1.7878 1.7292,1.9866 z M 52.0804,95.9321 c 8.397,-4.938 18.2718,-10.1041 27.0757,-14.9542 1.4235,-0.7844 8.0736,-4.6117 9.1445,-4.8161 0.7557,1.0403 3.2726,3.5019 3.6559,4.6398 L 55.5301,102.8307 C 54.4484,102.0552 54.1783,101.143 53.5493,99.6565 53.1334,98.674 52.1989,96.8811 52.0804,95.9321 Z M 91.406,75.858 c 0.1825,0.0034 0.3988,-0.222 0.559,-0.1191 1.1908,0.7668 2.1518,2.4834 2.8071,3.4203 l 2.2388,3.2034 c 0.7756,1.1778 0.258,1.1359 0.2208,1.1713 -0.5788,0.551 -1.3835,-1.0925 -1.7455,-1.5996 -0.7648,-1.0726 -3.9651,-5.5001 -4.0802,-6.0763 z m 94.4444,179.1158 c 1.7615,-1.4043 3.4138,-3.6998 4.7157,-5.9425 5.9843,-10.3088 -1.2679,-22.7367 -9.4028,-28.8655 -3.2935,-2.4815 -9.8237,-6.4587 -14.2234,-7.2 0.2107,1.1523 0.8391,2.965 1.2019,4.1272 0.3073,0.9842 0.3113,0.8487 1.2932,1.23 0.6868,0.2664 1.1373,0.4734 1.7654,0.7668 11.1606,5.2083 23.4442,18.1411 13.9204,30.5033 -1.2731,1.652 -3.2567,3.6221 -6.0679,4.193 -3.6195,0.735 -5.5298,-0.7483 -8.189,-1.6242 -0.3055,-2.3709 -0.3214,-2.1238 -1.4048,-3.9994 -0.5386,-0.9321 -1.321,-2.8287 -2.3386,-3.1267 -0.9527,1.3397 -1.9063,3.6122 -3.2434,4.5862 l -0.9839,-0.7265 c 0.6522,-0.635 1.328,-1.5919 1.9616,-2.5098 4.6,-6.6657 1.8759,-12.2771 2.8803,-13.6006 0.64,-0.8433 1.1162,-1.463 1.7152,-2.5563 1.1693,-2.1342 1.7898,-4.191 0.2914,-6.3315 -0.0232,2.9481 0.003,4.3691 -1.5897,6.1951 -3.6303,4.1624 -6.6818,7.7888 -11.9554,10.7331 -3.9257,2.1918 -6.7841,2.9999 -12.0832,3.2219 -3.4642,0.1451 -11.4491,0.4408 -14.1086,-1.0157 -3.9765,-2.1778 -24.1129,-38.0749 -28.874,-47.3261 -1.0732,-2.0854 1.1636,-1.7543 -0.275,-2.798 -2.8136,-2.0413 -4.8778,-0.7889 -6.5701,-4.6832 -2.753,-6.3357 -26.9345,-59.6029 -27.521,-63.6046 0.7038,0.7861 3.2664,6.6518 3.9339,8.1045 1.2382,2.6947 2.4251,5.4032 3.7273,8.0856 2.5982,5.3527 5.0176,10.9006 7.4996,16.3451 l 13.9819,30.621 c 0.426,0.9683 0.3351,1.4598 1.2946,1.643 0.2457,-0.3921 0.2228,-0.8161 0.0442,-1.4443 -1.038,-3.6536 -4.0309,-10.0063 -5.6752,-13.5161 -0.5911,-1.2612 -1.8063,-3.6845 -2.0812,-4.7897 2.8519,5.1709 5.4873,10.9394 8.3554,16.357 1.9953,3.7689 0.9362,3.0472 8.4449,3.9767 1.9347,0.2395 9.3711,0.9233 10.4605,1.6983 -1.1461,1.1902 -11.0169,1.2806 -12.8572,2.0307 -0.0436,1.1973 11.7188,21.9101 13.2186,24.5874 2.2972,4.1003 4.5734,8.0833 6.8802,12.1181 1.1333,1.9823 2.2938,4.0218 3.5204,5.9786 0.6329,1.0094 1.2126,1.9803 1.8958,2.946 0.8268,1.1693 1.2591,1.5863 3.2595,1.3575 -0.0371,-1.9743 -8.4271,-15.974 -9.0618,-18.7066 3.3806,3.3565 8.0629,18.0416 13.017,19.0766 1.8417,0.3846 8.4223,1.0397 9.5922,-0.1868 0.593,-0.9151 -1.7045,-5.1347 -2.2008,-6.2524 l -3.1108,-5.8178 c -6.3159,-9.9394 -12.3349,-20.2984 -18.4705,-30.3704 l -15.012,-24.7374 c -9.3393,-15.6748 -16.2581,-29.2261 -27.9389,-43.0087 -2.7499,-3.2448 -5.5774,-6.2444 -8.9779,-8.8634 -1.4898,-1.1471 -3.579,-2.7688 -4.4521,-4.4589 -1.203,-2.3295 -1.341,-4.7194 0.6007,-6.4669 6.0579,-5.4525 25.2975,-16.0098 32.7044,-20.4086 1.2583,-0.7475 4.5616,-3.0311 6.3032,-2.0945 0.676,0.3634 3.7023,3.8174 4.0668,4.4988 -3.2281,-7.3292 -4.3285,-4.9872 -9.0941,-8.1861 -1.3328,-0.8949 -2.7343,-3.5085 -3.7454,-4.976 -0.7605,-1.1032 -2.9687,-4.4869 -3.8937,-4.8277 -1.3512,-0.4974 -1.6041,1.0304 -3.1286,-0.5533 -1.0839,-1.1256 -1.4082,-1.0672 -3.0512,-0.2741 -5.771,2.7865 -11.2751,6.0608 -16.9132,9.0536 -5.6367,2.9917 -11.355,6.0741 -16.7788,9.39 -4.4544,2.7233 -2.6141,1.7175 -4.1023,4.4232 -1.6603,1.5945 -4.5567,0.758 -4.263,4.3177 0.4912,5.9539 7.158,28.0545 9.3277,34.0796 2.5523,7.0883 5.3481,4.8197 6.4176,6.7649 1.0627,1.9329 6.5877,27.5785 7.4874,31.5104 1.0602,4.6333 2.1082,9.5145 3.3653,14.0661 0.7336,2.6558 1.1291,4.9754 4.5411,3.8373 2.3137,-0.7716 3.9382,-2.0478 3.4733,-4.6795 -0.9771,-5.5295 -5.8331,-24.902 -6.2563,-28.61 l 0.6117,0.9102 c 0.1284,0.3013 0.2001,0.5417 0.318,0.8328 l 2.0407,5.1384 c 0.8748,2.2481 1.7586,4.6454 2.6368,6.8485 1.8652,4.6802 3.5974,9.2242 5.5179,13.6797 0.9734,2.2589 1.9256,4.4393 2.9597,6.7283 1.5244,3.3746 1.6063,3.0158 5.4592,4.0578 4.1136,1.1126 3.566,0.9391 5.6818,3.9994 3.935,5.6917 7.4386,11.7184 11.1129,17.5773 4.8385,7.7154 9.5372,16.2389 15.3235,23.0616 2.9512,3.4795 8.3373,4.5383 14.5026,4.5527 1.1685,1.9868 1.4712,3.3129 3.0895,4.9896 1.2977,1.3444 2.446,2.4463 4.6911,3.2536 5.8204,2.0936 9.701,-0.8918 12.9421,-1.9253 1.1262,0.9876 1.1078,2.3428 2.7958,3.0645 0.9363,0.4003 3.5073,1.4902 4.5278,1.2382 1.2286,-0.303 0.762,-0.8034 2.2397,-0.0771 0.7151,0.3512 1.2566,0.593 2.0375,0.8881 0.7569,0.286 1.3414,0.4705 2.2326,0.6831 4.2695,1.0177 8.5742,-0.0422 12.0163,-2.7859 z"
       style="fill:#1b1918;fill-rule:evenodd"
       id="path12" />
    <path
       d="M 92.8037,16.8214 H 32.6089 c -0.7588,5.055 -4.0328,19.0119 -5.305,25.0509 -2.2306,10.5871 -16.1428,74.529 -15.9166,75.7593 l 23.5721,-13.3949 c 0.7665,-0.5388 1.4003,-4.8189 1.6381,-5.9269 0.8655,-4.0343 1.7527,-8.1542 2.6326,-12.2956 l 9.1496,-42.8156 c 0.4125,-1.9097 0.798,-4.335 1.3672,-6.1515 l 23.0732,-0.0133 -2.8528,14.1826 c -0.2262,0.8606 -0.6222,0.9303 -1.2515,1.2852 -4.5111,2.545 -12.6116,6.9718 -17.0422,9.7053 -0.803,0.4952 -0.6327,0.4694 -0.8694,1.6568 l -3.4716,16.3018 c -0.4073,1.8725 -1.6392,6.5548 -1.6443,8.1195 2.8885,-1.2427 38.3774,-21.2003 41.5224,-22.9093 3.8058,-2.0679 3.2511,-1.4621 3.7999,-4.1159 0.4648,-2.2487 0.951,-4.4719 1.4383,-6.7204 0.9708,-4.4796 1.9009,-8.8336 2.8403,-13.2726 0.8138,-3.8447 2.3967,-9.5619 2.6654,-13.398 0.1842,-2.6294 -0.1313,-4.8716 -1.2059,-6.9125 -1.3484,-2.5612 -2.709,-2.9019 -3.945,-4.1349 z"
       style="fill:#1b1918;fill-rule:evenodd"
       id="path14" />
    <path
       d="m 428.5814,72.6395 c 0.2999,-1.4403 11.8245,-25.7125 13.1389,-28.7804 0.3608,-0.8422 3.871,-8.9816 4.5635,-9.3807 l 1.205,38.1611 z m 36.6931,-55.8181 h -31.3203 l -42.0605,87.8655 c 2.6674,0.0929 19.9806,0.2392 21.4336,-0.055 1.2853,-2.4185 2.4033,-5.0474 3.5431,-7.4957 0.6293,-1.3513 2.9814,-6.8094 3.6286,-7.5024 l 27.5836,-0.0142 0.813,14.974 c 1.4653,0.47 18.015,0.1423 20.9903,0.1423 -0.4365,-14.6628 -1.5262,-29.4299 -2.2703,-44.0991 l -1.7249,-32.7586 c -0.1788,-3.5864 -0.1717,-7.2703 -0.6162,-11.0568 z"
       style="fill:#1b1918;fill-rule:evenodd"
       id="path16" />
    <path
       d="M 325.6523,16.8214 H 268.793 l -18.9031,87.8958 57.6102,0.017 c 0.4992,-1.3907 4.0859,-18.4124 4.0116,-19.2002 l -36.8178,-0.0023 3.6065,-17.077 29.3307,-0.051 3.4922,-16.2578 -29.2563,-0.0148 3.3961,-16.0265 35.9983,-0.0352 c 0.5843,-0.1578 0.5293,-0.9864 0.7813,-2.1775 0.7781,-3.6777 3.4435,-15.1555 3.6096,-17.0705 z"
       style="fill:#1b1918;fill-rule:evenodd"
       id="path18" />
    <path
       d="m 347.8524,165.1348 c -1.0437,2.1782 -4.2641,1.069 -3.2766,-1.3799 1.0647,-2.6396 4.9179,-1.1588 3.2766,1.3799 z m 72.5681,-11.4344 c -2.0021,11.3012 -11.3959,15.5268 -15.6045,9.2929 -1.5103,-2.2371 -1.7971,-5.5293 -1.0686,-8.561 1.0737,-4.4668 5.9527,-11.1772 10.7345,-12.228 1.9366,-0.4255 3.8208,0.1247 4.9036,2.5367 0.8725,1.944 1.4497,6.6177 1.035,8.9594 z m -128.3482,-1.7977 c 1.7795,-3.4112 2.9137,-5.1922 5.2551,-7.4115 1.605,-1.5216 6.0219,-4.7738 8.7741,-1.9961 3.0027,3.0305 -1.5183,6.0182 -3.6732,7.1019 -2.9434,1.4803 -6.5517,2.4766 -10.356,2.3057 z m 62.7145,-9.5 c 0.0638,-1.4644 1.8147,-4.6735 2.8108,-4.8887 0.5304,-0.1145 0.9777,0.4397 1.4168,0.87 -0.057,2.5415 -1.6424,4.0107 -4.2276,4.0187 z m 10.5608,-1.9548 c -0.4031,-3.8358 -2.4333,-6.3093 -6.0869,-7.5163 -3.5436,-1.171 -8.4971,-0.4028 -10.7634,1.6761 -1.1458,1.0511 -1.9222,2.4089 -2.4514,4.3336 -0.4068,1.4788 -0.4241,5.5908 -0.6755,6.0928 l -4.2021,6.0894 c -0.5868,0.8608 -1.9069,2.6274 -1.9202,0.4518 -0.009,-1.4383 1.5398,-4.0601 2.1385,-6.4502 0.7733,-3.0872 0.2474,-5.9338 -1.5517,-7.4795 -2.7468,-2.3599 -7.2391,-3.655 -11.1254,-2.0945 -1.2079,0.485 -2.4633,1.349 -3.4041,1.6458 -1.1362,-2.5407 -5.2977,-3.4665 -6.467,-2.2026 -1.1339,1.2254 -4.4717,18.0547 -5.3127,19.1129 -0.3631,0.4567 -0.8022,0.6764 -1.2657,1.2549 -0.3464,0.4323 -0.716,0.9944 -1.0848,1.4338 -2.2686,2.7014 -6.55,7.1455 -11.3953,8.1754 -8.1856,1.7396 -10.3331,-6.81 -8.7548,-9.7433 4.2571,1.8953 11.2241,0.6781 14.9976,-1.277 4.4943,-2.3286 6.9457,-6.0432 6.2104,-11.4131 -1.2818,-9.364 -14.8654,-10.1911 -22.8487,-2.3074 -3.2093,3.1697 -5.6063,6.4944 -6.4454,11.3581 -1.7257,10.0015 5.1577,20.1538 16.7216,18.4867 4.4181,-0.6369 10.0576,-3.6748 11.8502,-6.152 0.3493,0.341 0.0868,-0.0213 0.3005,0.413 l 0.4842,1.618 c 0.5785,1.395 2.6597,4.2701 4.5082,4.2775 l 6.7603,-22.5813 c 0.4924,-1.5829 1.0335,-2.1839 2.5044,-3.4892 1.1537,-1.0242 5.0409,-4.6999 7.7154,-3.9427 0.5723,1.0366 -0.4587,2.596 -0.8294,3.6918 -1.3984,4.1335 -2.3179,9.3195 0.8441,12.3707 2.0529,1.9809 5.3969,2.7777 7.7902,1.6597 2.4973,-1.1665 3.5158,-3.0784 5.2574,-5.201 l 0.4601,1.2569 c 0.4459,1.8212 0.7784,2.9446 0.8124,5.0068 -3.4693,0.4331 -7.8086,4.6392 -5.4406,8.7539 0.6849,1.1903 2.7012,2.9177 4.2347,3.5139 2.124,0.8254 4.9108,-0.0887 6.2192,-1.2042 6.6952,-5.7081 -0.3004,-22.2539 1.3488,-25.9733 2.3907,1.4542 8.1544,2.1172 10.2387,-1.6347 0.4867,1.408 -3.0078,12.871 -3.5793,15.262 -0.6007,2.5152 -1.6194,5.7438 -0.3643,8.2256 0.7359,1.4547 3.1079,4.5904 5.3816,4.1434 l 2.6892,-10.8828 c 0.4712,-1.7311 0.9672,-3.5223 1.463,-5.2951 0.4793,-1.7153 0.8218,-3.7817 1.781,-5.0114 2.1458,-2.7513 3.7786,-5.0369 6.4503,-7.1212 2.3867,-1.8621 6.4995,-2.9755 6.5332,0.087 0.0315,2.8625 -2.5038,10.7306 -3.2995,13.8144 -1.3898,5.3861 -2.8446,12.2111 3.7863,14.3632 1.8184,0.5901 3.9373,0.7472 5.7628,0.0357 2.033,-0.7926 2.8394,-1.6149 3.9492,-2.8418 0.6747,-0.746 2.3942,-3.5328 2.9364,-3.9849 1.3692,1.7464 0.6375,1.7053 3.2188,4.2863 9.5485,9.5468 28.5712,0.0192 23.0425,-21.4784 -2.1812,-8.4813 -8.1578,-13.7415 -17.958,-9.2498 -3.6309,1.6643 -6.1217,4.1193 -7.8605,7.4364 -2.3496,4.4833 -2.4293,7.3463 -2.3624,12.9691 -1.8057,1.0009 -5.3991,7.1394 -7.6819,7.0631 -0.2304,-1.4499 2.4103,-8.606 2.9599,-10.4431 1.063,-3.5524 2.132,-7.6762 1.2065,-11.5846 -1.3232,-5.5866 -7.8449,-8.2755 -12.6916,-7.0773 -5.0051,1.2376 -2.6215,0.8807 -5.2163,1.8896 0.2866,-1.8865 2.8485,-10.874 3.5617,-13.6477 0.5392,-2.0965 1.8406,-4.8348 0.4723,-6.6285 -1.0381,-1.3612 -3.5396,-2.7386 -5.8978,-2.808 -1.7631,-0.0516 -1.8003,0.5706 -2.1509,2.0562 l -2.382,10.4187 c -0.9992,4.5956 -2.0707,9.855 -3.122,13.9927 z"
       style="fill:#1b1918;fill-rule:evenodd"
       id="path20" />
    <path
       d="m 419.2716,187.4333 c -1.9783,-2.6402 0.1256,-6.1776 -2.3119,-7.3089 -1.4375,-0.6667 -2.4957,0.3272 -2.9246,1.414 -2.1429,5.4311 5.635,14.0011 11.3038,11.3193 1.9845,-0.9391 3.325,-3.1187 3.996,-5.7348 0.3237,-1.2623 0.7908,-2.2399 1.1936,-3.6108 1.7394,-5.9179 2.8273,-13.2667 4.5071,-19.5259 1.209,-4.5045 3.4047,-12.9251 4.8419,-17.0849 0.5482,-1.5869 6.857,-7.9237 9.7483,-6.6388 1.9435,0.8637 0.0703,5.6052 -0.2945,7.5447 -0.5408,2.8738 -0.9462,4.9876 -1.9327,7.5918 -1.328,3.5044 -3.2961,6.3249 -6.1146,8.4296 -0.9589,0.7161 -2.1931,1.1098 -2.9483,1.6985 1.7073,0.955 5.4442,1.7229 7.7142,1.3014 6.711,-1.2458 9.9264,-9.4206 11.4477,-15.6906 1.3315,-5.4862 1.0786,-10.2041 -2.9888,-14.0102 -1.3181,-1.2337 -4.2061,-2.3896 -6.8763,-2.3046 -3.8095,0.1216 -4.3767,0.7671 -6.9761,1.9894 -1.6426,-0.7115 -3.6983,-2.5934 -7.0429,-1.7487 -0.6611,1.8266 -2.7641,11.3887 -3.1119,13.5397 -0.3566,2.2067 -1.0964,4.5255 -1.6123,6.6889 -0.5287,2.2184 -0.9241,4.6185 -1.4854,6.8709 l -4.9722,20.0222 c -0.5454,2.1957 -0.7147,5.3782 -3.1601,5.2478 z"
       style="fill:#1b1918;fill-rule:evenodd"
       id="path22" />
    <path
       d="m 272.3734,122.0632 93.0433,-0.0272 c 1.408,-0.3004 1.7742,-2.4996 2.0129,-4.2001 l -94.2809,-0.013 c -0.1009,1.643 -0.7577,2.9503 -0.7753,4.2403 z"
       style="fill:#1b1918;fill-rule:evenodd"
       id="path24" />
    <path
       d="m 381.7984,122.0369 88.7069,0.0263 v -4.2406 l -88.0529,-0.0913 c -0.2483,2.1609 -0.3192,2.4957 -0.654,4.3056 z"
       style="fill:#1b1918;fill-rule:evenodd"
       id="path26" />
    <path
       d="m 178.3772,122.0632 h 75.6277 l 3.1468,-0.0144 c 0.5408,-0.003 0.589,-2.1526 0.8081,-4.2262 l -78.7966,6e-4 c -0.1043,1.7113 -0.7325,2.9106 -0.786,4.24 z"
       style="fill:#1b1918;fill-rule:evenodd"
       id="path28" />
    <path
       d="m 140.4867,122.004 19.514,0.0609 2.9892,0.0312 c 0.5159,-0.9893 0.8889,-3.1702 0.9779,-4.2735 l -23.4762,0.004 z"
       style="fill:#1b1918;fill-rule:evenodd"
       id="path30" />
    <path
       d="m 163.853,164.9421 c 0.4008,-2.4761 1.4471,-5.6174 2.1115,-8.1998 1.7156,-6.6677 1.4851,-8.7245 6.2547,-14.2812 0.5975,-0.6965 1.802,-1.9018 2.8071,-2.2354 6.2116,-2.0608 6.1328,11.3374 2.1294,17.6448 -1.6078,2.533 -2.3627,3.755 -4.9861,5.2877 -2.2417,1.3099 -5.8207,1.7124 -8.3166,1.7839 z m 93.9773,0.0142 c 0.4195,-2.4996 1.4618,-5.7419 2.1053,-8.2112 0.6727,-2.5812 1.3428,-5.7092 2.1362,-8.1414 0.4558,-1.3974 4.5527,-7.588 6.9528,-8.3885 6.6331,-2.2125 6.124,13.0496 1.086,19.3172 -1.3391,1.6662 -1.8352,2.3599 -3.9484,3.6122 -2.8741,1.7034 -4.6477,1.6294 -8.3319,1.8117 z m -44.4671,-23.3777 c -0.3475,2.4296 -1.3674,5.8493 -1.9964,8.233 -0.6993,2.6504 -1.4602,5.3702 -2.041,8.0263 -0.4246,1.9412 -0.9768,1.946 -2.0347,3.0379 -2.2005,2.2702 -7.6257,5.9377 -10.0587,2.8856 -1.5041,-1.887 -1.1792,-6.0647 -0.5315,-8.6153 1.9664,-7.7431 8.3724,-13.7098 16.6623,-13.5675 z m 3.9833,21.9272 c -0.5891,0.68 -0.7481,0.3081 -0.7495,0.3081 -0.4439,-0.8929 -0.165,-0.9391 0.0156,-1.2609 0.2344,-3.5433 4.8452,-11.9491 6.1466,-16.855 0.5309,-2.0013 0.7974,-2.994 -0.2171,-4.7294 -2.0585,-3.5206 -7.1493,-5.3487 -11.3128,-5.9703 -9.7917,-1.4621 -18.2101,5.0479 -21.1816,13.2752 -1.347,3.7296 -1.2807,5.8805 -1.4667,10.08 -1.5868,0.6857 -3.2799,2.6263 -4.6814,3.0801 1.4318,-2.859 2.4625,-5.1942 2.9208,-8.9617 0.7594,-6.2402 -0.3498,-14.3606 -6.7532,-16.9064 -4.627,-1.8394 -6.9372,0.8433 -8.8954,1.7022 l 3.9554,-14.5746 c 0.8108,-2.7867 2.0342,-4.9618 0.004,-7.0044 -1.3252,-1.3334 -4.2636,-2.7856 -6.9301,-2.0429 -0.8096,1.0958 -6.1739,26.1671 -6.986,29.8026 -1.1443,5.1236 -2.4321,9.7492 -3.653,14.7849 -0.6738,2.7791 -1.6554,5.2027 -0.167,7.7698 0.7957,1.3728 3.0101,4.1559 5.1344,3.9821 l 0.3291,-1.1826 c 1.1234,0.318 1.9208,0.8518 3.3999,1.1477 5.4034,1.0817 16.1566,-2.2753 20.484,-5.2058 0.6715,-0.4547 1.9049,-1.4488 2.526,-1.7127 0.7194,0.7359 0.8115,1.8692 3.5073,4.6094 3.1816,3.2341 8.1473,3.4022 11.9293,0.9187 3.8619,-2.5358 2.9287,-2.59 4.3642,-3.6184 1.9349,5.3966 8.1371,6.3105 11.2255,4.4836 1.4851,-0.8785 2.0302,-1.916 3.0864,-2.5699 1.0454,1.0584 2.2549,3.4183 4.3211,3.3814 0.8787,-4.2168 5.0944,-17.7604 6.6966,-22.9612 0.8764,-2.8448 8.566,-8.4866 10.0944,-6.9454 0.186,0.2633 0.0836,-0.0377 0.1607,0.4232 0.1174,0.7002 -0.3072,1.5494 -0.7271,2.486 -0.9943,2.2189 -1.9068,6.7187 -1.3923,9.3702 0.902,4.6485 4.6321,5.9199 8.9478,5.7183 -0.4252,2.7244 -1.6384,4.9949 -0.1704,7.5665 0.7949,1.3924 3.1136,4.3438 5.1979,4.0663 l 0.4026,-1.106 c 0.621,0.1298 1.0819,0.4575 1.8025,0.691 4.9913,1.6186 9.4408,0.2339 13.6052,-2.3737 9.3773,-5.8714 10.9057,-21.6476 6.0364,-28.1387 -5.8238,-7.7638 -12.0714,-2.1838 -13.2041,-1.7804 0.4351,-2.6328 1.6534,-6.1773 2.3652,-8.8002 0.7909,-2.9154 1.601,-5.7886 2.3925,-8.6448 1.0029,-3.6201 -1.2674,-5.1338 -4.2934,-6.05 -1.8017,-0.5456 -3.4602,-0.7803 -3.8971,0.9258 -0.3628,1.4174 -0.7268,2.9081 -1.0564,4.3781 l -6.069,27.0774 c -0.451,2.0387 -0.7708,2.1989 -1.7898,3.6437 -0.6438,0.9124 -1.5321,2.817 -2.6756,2.7382 -1.1483,-2.664 5.633,-10.1318 0.3985,-14.9224 -1.4754,-1.3504 -4.4008,-2.5444 -6.982,-2.7382 -3.1589,-0.237 -5.3274,1.3192 -7.3718,2.3229 -0.8195,-0.7738 -1.2577,-2.01 -3.7406,-2.6155 -2.8726,-0.7004 -3.0963,0.6103 -3.6564,2.6428 l -5.1709,20.0177 c -0.6092,1.1911 -5.0293,5.8603 -6.2589,6.2776 z"
       style="fill:#1b1918;fill-rule:evenodd"
       id="path32" />
  </g>
</svg>
